<?xml version="1.0" standalone="no"?>
<!DOCTYPE svg PUBLIC "-//W3C//DTD SVG 20010904//EN"
 "http://www.w3.org/TR/2001/REC-SVG-20010904/DTD/svg10.dtd">
<svg version="1.0" xmlns="http://www.w3.org/2000/svg"
 width="420.000000pt" height="420.000000pt" viewBox="0 0 420.000000 420.000000"
 preserveAspectRatio="xMidYMid meet">
<metadata>
Created by potrace 1.14, written by Peter Selinger 2001-2017
</metadata>
<g transform="translate(0.000000,420.000000) scale(0.100000,-0.100000)"
fill="#000000" stroke="none">
<path d="M927 4184 c-191 -46 -351 -210 -390 -400 -9 -47 -12 -431 -11 -1705
l0 -1644 26 -73 c62 -173 189 -293 366 -346 48 -14 180 -16 1170 -16 958 0
1126 2 1180 15 183 43 326 178 383 358 l23 72 0 1660 -1 1660 -22 65 c-33 97
-66 148 -141 221 -70 68 -123 99 -225 130 -56 17 -122 18 -1180 18 -927 0
-1130 -3 -1178 -15z m950 -1433 c7 -1 28 -15 47 -32 43 -37 57 -99 33 -145 -8
-16 -115 -129 -237 -252 l-222 -223 218 -217 c119 -119 225 -230 236 -247 53
-88 -32 -205 -137 -188 -36 5 -68 33 -327 291 -201 200 -291 296 -299 320 -25
77 -20 84 284 390 155 156 293 289 307 295 22 11 44 13 97 8z m552 -11 c9 -5
143 -136 297 -292 297 -298 304 -308 289 -380 -6 -26 -71 -97 -284 -312 -301
-303 -329 -325 -399 -307 -78 21 -123 111 -88 178 8 17 115 130 237 251 l221
222 -222 222 c-218 218 -250 257 -250 297 0 35 29 96 52 110 47 29 106 34 147
11z"/>
</g>
</svg>
